OpenSim_Sub22_baseline_IK_filtered.mot
version=1
nRows=35
nColumns=24
inDegrees=yes
endheader
time	pelvis_tilt	pelvis_list	pelvis_rotation	pelvis_tx	pelvis_ty	pelvis_tz	hip_flexion_r	hip_adduction_r	hip_rotation_r	knee_angle_r	ankle_angle_r	subtalar_angle_r	mtp_angle_r	hip_flexion_l	hip_adduction_l	hip_rotation_l	knee_angle_l	ankle_angle_l	subtalar_angle_l	mtp_angle_l	lumbar_extension	lumbar_bending	lumbar_rotation
10	-7.96881609	-4.35038581	10.11965805	1.02470369	0.93382277	-0.53939066	21.73409834	3.66069432	-8.67969914	-20.93385958	16.52669297	-0.00000550	-0.00000019	21.72944046	-4.16973411	8.45283027	-69.10642605	-0.62360469	0.00000161	0.00000020	-0.43186634	4.25916352	0.07723899
10.01000000	-8.10124319	-4.19644667	10.04178288	1.02414545	0.93486433	-0.53842488	21.01982525	3.72457805	-8.56540015	-20.67202385	16.87143556	-0.00000546	-0.00000019	23.33960810	-3.90824183	8.12151215	-69.78335351	0.37769278	0.00000124	0.00000019	-0.40741170	4.07879892	0.07393707
10.02000000	-8.22359870	-3.98545255	9.90348682	1.02357431	0.93585697	-0.53744624	20.29646563	3.74865967	-8.36242444	-20.42505577	17.22346803	-0.00000543	-0.00000020	24.86554869	-3.60210652	7.73295773	-70.10152922	1.38276541	0.00000087	0.00000018	-0.41297725	3.83027309	0.06947367
10.03000000	-8.32063169	-3.73267968	9.70639132	1.02299319	0.93679795	-0.53646816	19.54837857	3.74659728	-8.08385978	-20.19035376	17.58747012	-0.00000542	-0.00000020	26.29049895	-3.27444639	7.29224953	-70.07193541	2.36531972	0.00000052	0.00000017	-0.46203192	3.53536564	0.06427028
10.04000000	-8.38290173	-3.45274343	9.45275000	1.02240064	0.93767896	-0.53549900	18.76652852	3.73065997	-7.73890744	-19.96560491	17.96441327	-0.00000541	-0.00000020	27.60461544	-2.94644620	6.80589118	-69.70604780	3.30494987	0.00000016	0.00000015	-0.56191020	3.21350442	0.05869261
10.05000000	-8.40698957	-3.15905582	9.14603114	1.02179327	0.93848704	-0.53454539	17.94846572	3.71097899	-7.33377023	-19.74893638	18.35290800	-0.00000540	-0.00000020	28.80458384	-2.63583060	6.28207962	-69.01438185	4.18429108	-0.00000021	0.00000014	-0.71344877	2.88118017	0.05303928
10.06000000	-8.39435721	-2.86360884	8.79202943	1.02116772	0.93920716	-0.53361791	17.09653125	3.69494972	-6.87487655	-19.53823820	18.75041425	-0.00000540	-0.00000020	29.89175901	-2.35567757	5.73151233	-68.00517578	4.98803752	-0.00000059	0.00000012	-0.91210005	2.55220831	0.04754900
10.07000000	-8.35005323	-2.57693537	8.39885438	1.02052252	0.93982412	-0.53273262	16.21596658	3.68741808	-6.37140199	-19.33057208	19.15358386	-0.00000541	-0.00000020	30.87014803	-2.11422735	5.16723454	-66.68363577	5.70332918	-0.00000097	0.00000010	-1.14927804	2.23809563	0.04241010
10.08000000	-8.28159828	-2.30796430	7.97610930	1.01986075	0.94032310	-0.53190851	15.31338134	3.69122649	-5.83631676	-19.12182427	19.55880842	-0.00000543	-0.00000021	31.74467580	-1.91545753	4.60351798	-65.05172671	6.31988521	-0.00000135	0.00000008	-1.41349884	1.94801766	0.03776266
10.09000000	-8.19808113	-2.06368228	7.53389716	1.01919115	0.94068942	-0.53116366	14.39588091	3.70756297	-5.28570479	-18.90693089	19.96345203	-0.00000545	-0.00000021	32.51985827	-1.75998899	4.05417003	-63.10822964	6.82976554	-0.00000172	0.00000006	-1.69143093	1.68847592	0.03369465
10.10000000	-8.10946799	-1.84888568	7.08184572	1.01852665	0.94090821	-0.53051182	13.47109961	3.73624018	-4.73724667	-18.68119268	20.36633270	-0.00000547	-0.00000021	33.19915082	-1.64610645	3.53084031	-60.84943707	7.22762301	-0.00000207	0.00000004	-1.96890996	1.46310237	0.03024059
10.11000000	-8.02618275	-1.66625372	6.62840490	1.01788182	0.94096464	-0.52996077	12.54784473	3.77609157	-4.20927100	-18.44202354	20.76734782	-0.00000549	-0.00000021	33.78514589	-1.57066041	3.04210018	-58.27086157	7.51141048	-0.00000237	0.00000003	-2.23166792	1.27290774	0.02738761
10.12000000	-7.95865387	-1.51676065	6.18052750	1.01727005	0.94084416	-0.52951283	11.63637943	3.82546457	-3.71932572	-18.18993555	21.16728953	-0.00000549	-0.00000021	34.28013130	-1.52975387	2.59359980	-55.36971092	7.68285941	-0.00000262	0.00000002	-2.46605509	1.11703098	0.02509052
10.13000000	-7.91659088	-1.40046619	5.74325798	1.01670188	0.94053309	-0.52916570	10.74789419	3.88301500	-3.28114072	-17.92877114	21.56714854	-0.00000549	-0.00000022	34.68646915	-1.51955796	2.18898617	-52.14785665	7.74831634	-0.00000279	0.00000000	-2.65999189	0.99391541	0.02329507
10.14000000	-7.90818769	-1.31743777	5.31897233	1.01618525	0.94001965	-0.52891236	9.89363705	3.94863617	-2.90215867	-17.66583572	21.96654674	-0.00000546	-0.00000022	35.00669000	-1.53727615	1.83102785	-48.61515121	7.72087928	-0.00000287	-0.00000000	-2.80379248	0.90250622	0.02196124
10.15000000	-7.93911776	-1.26825977	4.90696923	1.01572631	0.93929605	-0.52874168	9.08380453	4.02379499	-2.58352778	-17.41197894	22.36245601	-0.00000541	-0.00000022	35.24324604	-1.58175849	1.52192531	-44.79281150	7.62224430	-0.00000285	-0.00000001	-2.89117442	0.84295668	0.02107819
10.16000000	-8.01140051	-1.25403956	4.50400151	1.01532893	0.93836161	-0.52864067	8.32620624	4.11114557	-2.32155149	-17.18120981	22.74916070	-0.00000534	-0.00000022	35.39829919	-1.65355423	1.26242816	-40.71660562	7.48223672	-0.00000273	-0.00000001	-2.92055871	0.81678434	0.02066987
10.17000000	-8.12280324	-1.27615135	4.10528031	1.01499506	0.93722480	-0.52859737	7.62497211	4.21388876	-2.10880466	-16.98911022	23.11965899	-0.00000523	-0.00000022	35.47406474	-1.75448300	1.05092966	-36.43972433	7.33593139	-0.00000251	-0.00000000	-2.89570461	0.82658750	0.02079131
10.18000000	-8.26700149	-1.33556977	3.70539392	1.01472626	0.93590366	-0.52860315	6.97963508	4.33482249	-1.93456618	-16.85044497	23.46732618	-0.00000509	-0.00000022	35.47363132	-1.88659635	0.88345626	-32.03496674	7.21902846	-0.00000219	0.00000001	-2.82536983	0.87511195	0.02151104
10.19000000	-8.43444963	-1.43149909	3.29899078	1.01452473	0.93442459	-0.52865395	6.38568964	4.47466477	-1.78588528	-16.77860702	23.78690735	-0.00000491	-0.00000021	35.40201085	-2.05039933	0.75422072	-27.59525160	7.16250744	-0.00000179	0.00000002	-2.72222568	0.96348169	0.02287690
10.20000000	-8.61378787	-1.55965400	2.88107398	1.01439358	0.93281998	-0.52874981	5.83673722	4.63006513	-1.64933136	-16.78742917	24.07513415	-0.00000471	-0.00000021	35.26704829	-2.24293804	0.65635144	-23.23153699	7.18746285	-0.00000131	0.00000003	-2.60118323	1.08900693	0.02487291
10.21000000	-8.79334554	-1.71146675	2.44732863	1.01433755	0.93112559	-0.52889334	5.32640007	4.79273368	-1.51188519	-16.89203675	24.33043887	-0.00000448	-0.00000020	35.07986157	-2.45685145	0.58344150	-19.06797716	7.30172295	-0.00000079	0.00000004	-2.47743390	1.24395308	0.02739288
10.22000000	-8.96261459	-1.87503479	1.99498047	1.01436457	0.92937802	-0.52908897	4.84923986	4.95050690	-1.36109248	-17.10731757	24.55168033	-0.00000423	-0.00000019	34.85487778	-2.68089087	0.53217531	-15.23441097	7.50031184	-0.00000024	0.00000006	-2.36430123	1.41629915	0.03024937
10.23000000	-9.11350442	-2.03698603	1.52369733	1.01448728	0.92761188	-0.52934209	4.40118648	5.08952178	-1.18557642	-17.44573233	24.73699119	-0.00000395	-0.00000017	34.60924687	-2.90150580	0.50444066	-11.85647114	7.76879998	0.00000031	0.00000008	-2.27136183	1.59160850	0.03320329
10.24000000	-9.24086753	-2.18400749	1.03605505	1.01472380	0.92585820	-0.52965692	3.97948532	5.19616698	-0.97584330	-17.91578358	24.88271184	-0.00000367	-0.00000016	34.36118382	-3.10453949	0.50730729	-9.04411621	8.08696910	0.00000083	0.00000010	-2.20363791	1.75451944	0.03598899
10.25000000	-9.34210878	-2.30357121	0.53765514	1.01509702	0.92414483	-0.53003432	3.58223755	5.25816170	-0.72507233	-18.52176509	24.98208005	-0.00000338	-0.00000015	34.12714238	-3.27620203	0.55063881	-6.87944119	8.43174904	0.00000129	0.00000011	-2.16206810	1.88938578	0.03832681
10.26000000	-9.41638641	-2.38412748	0.03690367	1.01563258	0.92249790	-0.53047146	3.20821250	5.26488772	-0.42994893	-19.26481473	25.02417481	-0.00000310	-0.00000013	33.91853105	-3.40337461	0.64274877	-5.40505724	8.77817501	0.00000166	0.00000013	-2.14466734	1.98056782	0.03993085
10.27000000	-9.46415362	-2.41536115	-0.45547854	1.01635556	0.92094276	-0.53096339	2.85744826	5.20752283	-0.09152381	-20.14435475	24.99353587	-0.00000282	-0.00000012	33.73939256	-3.47388345	0.78554984	-4.61548093	9.09747915	0.00000193	0.00000014	-2.14750907	2.01312319	0.04052351
10.28000000	-9.48702767	-2.38879805	-0.92696348	1.01728605	0.91950423	-0.53150647	2.53246948	5.07934554	0.28366781	-21.15973439	24.87060774	-0.00000257	-0.00000011	33.58583740	-3.47705419	0.97186769	-4.45448515	9.35523769	0.00000208	0.00000015	-2.16550624	1.97407411	0.03986003
10.29000000	-9.48754422	-2.29842567	-1.36372569	1.01843336	0.91820679	-0.53210223	2.23971590	4.87598134	0.68228911	-22.31266899	24.63270947	-0.00000233	-0.00000009	33.44734992	-3.40430806	1.18650136	-4.82131331	9.51364567	0.00000211	0.00000016	-2.19349400	1.85367678	0.03775369
10.30000000	-9.46876440	-2.14085777	-1.75155000	1.01979065	0.91707479	-0.53275926	1.99060659	4.59522059	1.08421262	-23.60967813	24.25503688	-0.00000210	-0.00000007	33.30984008	-3.24954059	1.41043675	-5.58696784	9.53829734	0.00000204	0.00000017	-2.22745529	1.64600455	0.03408899
10.31000000	-9.43377837	-1.91504448	-2.07759112	1.02133349	0.91613230	-0.53349116	1.80144108	4.23656997	1.46533880	-25.06295932	23.71169293	-0.00000190	-0.00000005	33.15929878	-3.00941795	1.62607888	-6.61738927	9.40740139	0.00000188	0.00000017	-2.26545734	1.34873587	0.02881984
10.32000000	-9.38509827	-1.62178784	-2.33244620	1.02302287	0.91540217	-0.53431175	1.69196438	3.80080190	1.80199303	-26.68940361	22.97771731	-0.00000171	-0.00000004	32.98461946	-2.68342694	1.82051006	-7.79632374	9.12173894	0.00000166	0.00000017	-2.30814977	0.96249310	0.02195876
10.33000000	-9.32412329	-1.26326241	-2.51128538	1.02481002	0.91490411	-0.53523120	1.68326318	3.28955188	2.07437253	-28.50842387	22.03284030	-0.00000153	-0.00000002	32.77898519	-2.27324565	1.98570369	-9.03975419	8.71163304	0.00000142	0.00000017	-2.35880879	0.49008005	0.01356322
10.34000000	-9.25084424	-0.84291411	-2.61379913	1.02664008	0.91465168	-0.53625404	1.79556762	2.70534501	2.26835563	-30.53908698	20.86578873	-0.00000138	-0.00000000	32.53939610	-1.78198111	2.11817926	-10.29696833	8.23368999	0.00000118	0.00000017	-2.42304453	-0.06386275	0.00372879
